<svg width="118" height="24" viewBox="0 0 118 24" fill="none" xmlns="http://www.w3.org/2000/svg">
<g clip-path="url(#clip0_37_99)">
<path d="M36.6684 19.5649C35.2919 19.5649 34.0316 19.225 32.8874 18.5453C31.7404 17.8656 30.8341 16.9196 30.1685 15.7046C29.5029 14.4924 29.1716 13.116 29.1716 11.5781C29.1716 10.0402 29.5058 8.66377 30.1685 7.45159C30.8341 6.23941 31.7404 5.29346 32.8874 4.6109C34.0344 3.93117 35.2948 3.59131 36.6684 3.59131C37.9259 3.59131 39.0446 3.85753 40.0302 4.38999C41.013 4.92244 41.8116 5.62199 42.4262 6.48581C43.0408 7.35246 43.4571 8.27859 43.6809 9.26986H40.7751C40.6108 8.7374 40.3446 8.25027 39.9764 7.80561C39.6054 7.36096 39.1381 7.00693 38.5688 6.74071C37.9995 6.47448 37.3679 6.34137 36.6712 6.34137C35.8131 6.34137 35.0285 6.55945 34.3205 6.9956C33.6096 7.43176 33.0517 8.04635 32.6467 8.83653C32.2388 9.62671 32.0377 10.5415 32.0377 11.5753C32.0377 12.609 32.2417 13.5238 32.6467 14.314C33.0545 15.1042 33.6124 15.7188 34.3205 16.1549C35.0314 16.5911 35.8131 16.8092 36.6712 16.8092C37.7361 16.8092 38.6283 16.5174 39.3448 15.934C40.0613 15.3506 40.54 14.6284 40.7751 13.7702H43.6809C43.4741 14.7756 43.0663 15.7188 42.4602 16.5996C41.8541 17.4804 41.0583 18.1941 40.0755 18.7407C39.0927 19.2873 37.957 19.562 36.6712 19.562L36.6684 19.5649Z" fill="#DDFFDC" fill-opacity="1"/>
<path d="M50.4357 19.5648C49.3708 19.5648 48.405 19.3128 47.5412 18.8115C46.6774 18.3102 45.9948 17.6134 45.4992 16.727C45.0035 15.8405 44.7571 14.8407 44.7571 13.7333C44.7571 12.626 45.0035 11.6262 45.4992 10.7397C45.9948 9.85324 46.6745 9.15652 47.5412 8.65522C48.4078 8.15392 49.3708 7.90186 50.4357 7.90186C51.5006 7.90186 52.489 8.15392 53.3528 8.65522C54.2195 9.15935 54.8992 9.85324 55.3948 10.7397C55.8905 11.6262 56.1369 12.626 56.1369 13.7333C56.1369 14.8407 55.8876 15.8405 55.3948 16.727C54.8992 17.6134 54.2195 18.3102 53.3528 18.8115C52.489 19.3156 51.5147 19.5648 50.4357 19.5648ZM50.4357 17.0555C50.9823 17.0555 51.4864 16.9196 51.9452 16.6448C52.404 16.3729 52.7694 15.9793 53.0441 15.4695C53.3188 14.9597 53.4548 14.3791 53.4548 13.7277C53.4548 13.0763 53.3188 12.4957 53.0441 11.9859C52.7694 11.4761 52.404 11.0852 51.9452 10.8105C51.4864 10.5358 50.9823 10.3998 50.4357 10.3998C49.8891 10.3998 49.3849 10.5358 48.9261 10.8105C48.4673 11.0852 48.1048 11.4761 47.8386 11.9859C47.5723 12.4957 47.4392 13.0763 47.4392 13.7277C47.4392 14.3791 47.5723 14.9597 47.8386 15.4695C48.1048 15.9793 48.4673 16.3729 48.9261 16.6448C49.3849 16.9196 49.8862 17.0555 50.4357 17.0555Z" fill="#DDFFDC" fill-opacity="1"/>
<path d="M62.3649 19.5648C61.4048 19.5648 60.5268 19.3184 59.7366 18.8228C58.9464 18.3271 58.3205 17.6389 57.8617 16.7609C57.4029 15.8801 57.1735 14.8718 57.1735 13.7333C57.1735 12.5948 57.4029 11.5865 57.8617 10.7057C58.3205 9.82488 58.9436 9.13949 59.7366 8.64386C60.5268 8.14822 61.4048 7.90182 62.3649 7.90182C63.0899 7.90182 63.73 8.03777 64.2851 8.31249C64.8402 8.58721 65.2792 8.92141 65.6049 9.32075H65.7154V3.81213H68.4003V19.341H66.0722L65.8513 18.0552H65.7408C65.3868 18.514 64.928 18.8794 64.3644 19.1541C63.8008 19.4288 63.1381 19.5648 62.3677 19.5648H62.3649ZM62.7869 17.0781C63.3335 17.0781 63.8291 16.9365 64.2738 16.6561C64.7184 16.3757 65.0696 15.9821 65.3273 15.4808C65.5851 14.9795 65.7154 14.3932 65.7154 13.7276C65.7154 13.0621 65.5851 12.4786 65.3273 11.9745C65.0696 11.4732 64.7184 11.0824 64.2738 10.8105C63.8291 10.5358 63.3335 10.3998 62.7869 10.3998C62.2403 10.3998 61.7673 10.5358 61.3226 10.8105C60.878 11.0852 60.5268 11.4732 60.2691 11.9745C60.0113 12.4786 59.881 13.0621 59.881 13.7276C59.881 14.3932 60.0113 14.9766 60.2691 15.4808C60.5268 15.9849 60.878 16.3757 61.3226 16.6561C61.7673 16.9365 62.2544 17.0781 62.7869 17.0781Z" fill="#DDFFDC" fill-opacity="1"/>
<path d="M75.7413 19.5648C74.6764 19.5648 73.7078 19.3128 72.8355 18.8115C71.9632 18.3102 71.2778 17.6134 70.7821 16.727C70.2865 15.8405 70.0401 14.8407 70.0401 13.7333C70.0401 12.626 70.2865 11.6262 70.7821 10.7397C71.2778 9.85324 71.9603 9.15652 72.8355 8.65522C73.7078 8.15392 74.6764 7.90186 75.7413 7.90186C76.8062 7.90186 77.6927 8.14542 78.5367 8.63256C79.3807 9.1197 80.0406 9.79093 80.5221 10.6406C81.0035 11.4902 81.2443 12.4334 81.2443 13.4699C81.2443 13.722 81.2329 13.9543 81.2103 14.1695C81.1876 14.3847 81.1621 14.5349 81.1338 14.6255H72.725C72.7845 15.1438 72.9544 15.6083 73.2348 16.0246C73.5152 16.4381 73.8749 16.7553 74.3111 16.979C74.7472 17.1999 75.223 17.3104 75.7413 17.3104C76.3021 17.3104 76.7949 17.1914 77.2169 16.9564C77.6389 16.7213 77.9589 16.4324 78.1827 16.0926H80.9327C80.7401 16.6703 80.4173 17.2198 79.967 17.7466C79.5166 18.2733 78.936 18.7067 78.2252 19.055C77.5143 19.4034 76.6873 19.5762 75.7413 19.5762V19.5648ZM78.582 12.7987C78.5225 12.2974 78.3668 11.8414 78.1175 11.4336C77.8655 11.0258 77.5369 10.7057 77.1291 10.4678C76.7213 10.2327 76.2596 10.1138 75.7413 10.1138C75.1947 10.1138 74.7047 10.2327 74.2771 10.4678C73.8466 10.7057 73.5011 11.0258 73.2348 11.4336C72.9686 11.8414 72.7987 12.2946 72.725 12.7987H78.582Z" fill="#DDFFDC" fill-opacity="1"/>
<path d="M87.9282 24C86.7585 24 85.7786 23.7848 84.9884 23.3571C84.1982 22.9266 83.6092 22.3942 83.224 21.7598C82.8388 21.1225 82.632 20.5023 82.6037 19.8962H85.3311C85.3764 20.1766 85.4926 20.4513 85.6852 20.7175C85.8777 20.9838 86.161 21.2018 86.5405 21.3718C86.9172 21.5417 87.3788 21.6267 87.9282 21.6267C88.7411 21.6267 89.3925 21.3944 89.8796 20.9271C90.3668 20.4626 90.6103 19.8367 90.6103 19.0522V17.4548H90.4999C90.1883 17.8259 89.7578 18.1232 89.2027 18.3526C88.6476 18.5821 88.0387 18.6953 87.3731 18.6953C86.413 18.6953 85.5435 18.4659 84.7675 18.0071C83.9915 17.5483 83.3797 16.9082 82.9379 16.0869C82.4961 15.2656 82.2724 14.3394 82.2724 13.3028C82.2724 12.2663 82.4933 11.3175 82.9379 10.4961C83.3826 9.67481 83.9915 9.03473 84.7675 8.57592C85.5435 8.1171 86.413 7.8877 87.3731 7.8877C88.084 7.8877 88.7156 8.01798 89.2707 8.27571C89.8258 8.53627 90.2875 8.89312 90.6585 9.35194H90.7689L90.9898 8.10861H93.2981V19.0664C93.2981 20.0435 93.0885 20.9045 92.6665 21.6522C92.2445 22.3999 91.6271 22.9748 90.8142 23.3826C90.0014 23.7905 89.0385 23.9915 87.9311 23.9915L87.9282 24ZM87.7923 16.3248C88.3106 16.3248 88.7864 16.1945 89.2226 15.9368C89.6587 15.6791 89.9986 15.3194 90.2421 14.8606C90.4857 14.4017 90.6075 13.8834 90.6075 13.3085C90.6075 12.7336 90.4857 12.2153 90.2421 11.7565C89.9986 11.2977 89.6587 10.9408 89.2226 10.6802C88.7864 10.4225 88.3078 10.2922 87.7923 10.2922C87.2768 10.2922 86.7982 10.4225 86.362 10.6802C85.9259 10.938 85.586 11.2977 85.3424 11.7565C85.0989 12.2153 84.9771 12.7336 84.9771 13.3085C84.9771 13.8834 85.0989 14.4046 85.3424 14.8606C85.586 15.3194 85.9259 15.6791 86.362 15.9368C86.7982 16.1945 87.274 16.3248 87.7923 16.3248Z" fill="#DDFFDC" fill-opacity="1"/>
<path d="M100.594 19.5648C99.5289 19.5648 98.5603 19.3128 97.688 18.8115C96.8157 18.3102 96.1303 17.6134 95.6347 16.727C95.139 15.8405 94.8926 14.8407 94.8926 13.7333C94.8926 12.626 95.139 11.6262 95.6347 10.7397C96.1303 9.85324 96.8128 9.15652 97.688 8.65522C98.5603 8.15392 99.5289 7.90186 100.594 7.90186C101.659 7.90186 102.545 8.14542 103.389 8.63256C104.233 9.1197 104.893 9.79093 105.375 10.6406C105.856 11.4902 106.097 12.4334 106.097 13.4699C106.097 13.722 106.085 13.9543 106.063 14.1695C106.04 14.3847 106.015 14.5349 105.986 14.6255H97.5775C97.637 15.1438 97.8069 15.6083 98.0873 16.0246C98.3677 16.4381 98.7274 16.7553 99.1636 16.979C99.5997 17.1999 100.076 17.3104 100.594 17.3104C101.155 17.3104 101.647 17.1914 102.069 16.9564C102.491 16.7213 102.811 16.4324 103.035 16.0926H105.785C105.593 16.6703 105.27 17.2198 104.819 17.7466C104.369 18.2733 103.789 18.7067 103.078 19.055C102.367 19.4034 101.54 19.5762 100.594 19.5762V19.5648ZM103.435 12.7987C103.375 12.2974 103.219 11.8414 102.967 11.4336C102.715 11.0258 102.387 10.7057 101.979 10.4678C101.571 10.2327 101.109 10.1138 100.591 10.1138C100.044 10.1138 99.5544 10.2327 99.1267 10.4678C98.6991 10.7057 98.3507 11.0258 98.0845 11.4336C97.8183 11.8414 97.6483 12.2946 97.5747 12.7987H103.432H103.435Z" fill="#DDFFDC" fill-opacity="1"/>
<path d="M107.68 19.341V8.11703H110.008L110.229 9.20459H110.339C110.606 8.86473 111.019 8.56168 111.583 8.29546C112.143 8.02923 112.803 7.89612 113.557 7.89612C114.415 7.89612 115.18 8.09154 115.854 8.48521C116.528 8.87606 117.052 9.43117 117.428 10.1505C117.805 10.8671 117.995 11.6856 117.995 12.6032V19.3467H115.31V12.9572C115.31 12.4701 115.205 12.0368 114.998 11.6601C114.792 11.2834 114.503 10.986 114.135 10.7736C113.763 10.5584 113.35 10.4508 112.891 10.4508C112.404 10.4508 111.968 10.5612 111.583 10.7821C111.198 11.003 110.897 11.3032 110.685 11.6799C110.47 12.0566 110.362 12.4814 110.362 12.9544V19.3438H107.677L107.68 19.341Z" fill="#DDFFDC" fill-opacity="1"/>
<path d="M16.2398 7.79139C16.016 8.01513 16.016 8.37765 16.2398 8.6014L18.6868 11.0484C18.9105 11.2722 18.9105 11.6347 18.6868 11.8584L16.2398 14.3054C16.016 14.5292 16.016 14.8917 16.2398 15.1154L17.4548 16.3304C17.6785 16.5542 18.0411 16.5542 18.2648 16.3304L22.7368 11.8584C22.9606 11.6347 22.9606 11.2722 22.7368 11.0484L18.2648 6.57638C18.0411 6.35263 17.6785 6.35263 17.4548 6.57638L16.2398 7.79139Z" fill="#DDFFDC" fill-opacity="1"/>
<path d="M14.2147 17.1376C13.991 16.9138 13.6285 16.9138 13.4047 17.1376L11.8555 18.6868C11.6318 18.9105 11.2693 18.9105 11.0455 18.6868L4.21428 11.8555C3.99053 11.6318 3.99053 11.2693 4.21428 11.0455L11.0455 4.21428C11.2693 3.99053 11.6318 3.99053 11.8555 4.21428L13.4047 5.76349C13.6285 5.98723 13.991 5.98723 14.2147 5.76349L15.4298 4.54848C15.6535 4.32473 15.6535 3.96221 15.4298 3.73847L11.8555 0.167075C11.6318 -0.0566682 11.2693 -0.0566682 11.0455 0.167075L0.167075 11.0484C-0.0566682 11.2721 -0.0566682 11.6346 0.167075 11.8584L11.0455 22.7368C11.2693 22.9606 11.6318 22.9606 11.8555 22.7368L15.4298 19.1626C15.6535 18.9388 15.6535 18.5763 15.4298 18.3526L14.2147 17.1376Z" fill="#DDFFDC" fill-opacity="1"/>
<path d="M14.3139 11.4534C14.3139 13.0338 13.0309 14.3168 11.4505 14.3168C9.87017 14.3168 8.58719 13.0338 8.58719 11.4534C8.58719 9.87307 9.87017 8.59009 11.4505 8.59009C13.0309 8.59009 14.3139 9.87307 14.3139 11.4534Z" fill="#DDFFDC" fill-opacity="1"/>
</g>
<defs>
<clipPath id="clip0_37_99">
<rect width="117.995" height="24" fill="white"/>
</clipPath>
</defs>
</svg>
