<svg width="120" height="30" viewBox="0 0 120 30" fill="none" xmlns="http://www.w3.org/2000/svg">
<path d="M39.4529 21.718C38.0691 21.718 36.8691 21.4105 35.851 20.7918C34.8329 20.1749 34.0529 19.3143 33.511 18.208C32.9691 17.1037 32.6973 15.8174 32.6973 14.353C32.6973 12.8887 32.9691 11.6193 33.511 10.5074C34.0529 9.39554 34.8329 8.53116 35.851 7.91429C36.8691 7.29741 38.0691 6.98804 39.4529 6.98804C41.1066 6.98804 42.4604 7.38741 43.5123 8.18804C44.5641 8.98866 45.2241 10.1137 45.496 11.5649H43.2385C43.036 10.7249 42.6216 10.0518 41.9973 9.55116C41.3729 9.04866 40.5198 8.79929 39.4341 8.79929C38.4704 8.79929 37.6435 9.02241 36.9516 9.47054C36.2598 9.91866 35.7235 10.5562 35.3448 11.383C34.9641 12.2099 34.7748 13.1999 34.7748 14.353C34.7748 15.5062 34.9641 16.4999 35.3448 17.3343C35.7235 18.1687 36.2598 18.8062 36.9516 19.2468C37.6435 19.6874 38.4704 19.9087 39.4341 19.9087C40.5198 19.9087 41.3729 19.6687 41.9973 19.1868C42.6216 18.7049 43.0341 18.0505 43.2385 17.2237H45.496C45.2241 18.6337 44.5641 19.7362 43.5123 20.5293C42.4604 21.3224 41.1085 21.7199 39.4529 21.7199V21.718Z" fill="#DDFFDC" fill-opacity="1"/>
<path d="M51.6241 21.7181C50.6472 21.7181 49.7735 21.495 48.9991 21.0469C48.2266 20.5987 47.6229 19.9725 47.1879 19.1644C46.7529 18.3581 46.5372 17.4244 46.5372 16.3669C46.5372 15.3094 46.7585 14.3362 47.1991 13.5281C47.6397 12.7219 48.2472 12.0937 49.0197 11.6456C49.7922 11.1975 50.6604 10.9744 51.6241 10.9744C52.5879 10.9744 53.4691 11.1975 54.2285 11.6456C54.9879 12.0937 55.5916 12.7181 56.0397 13.5169C56.4879 14.3175 56.711 15.2606 56.711 16.3444C56.711 17.4281 56.4879 18.3562 56.0397 19.1625C55.5916 19.9687 54.9841 20.5969 54.2191 21.045C53.4522 21.4931 52.5879 21.7162 51.626 21.7162L51.6241 21.7181ZM51.6035 19.9687C52.1454 19.9687 52.6441 19.8337 53.0997 19.5619C53.5535 19.29 53.9229 18.8831 54.2079 18.3412C54.4929 17.7994 54.6354 17.1337 54.6354 16.3481C54.6354 15.5625 54.4966 14.88 54.2191 14.3437C53.9416 13.8075 53.5779 13.4044 53.1297 13.1325C52.6816 12.8606 52.1866 12.7256 51.6447 12.7256C51.1029 12.7256 50.6004 12.8606 50.1391 13.1325C49.6779 13.4044 49.3085 13.8075 49.031 14.3437C48.7535 14.88 48.6147 15.5475 48.6147 16.3481C48.6147 17.1487 48.7535 17.7994 49.031 18.3412C49.3085 18.8831 49.6722 19.29 50.1185 19.5619C50.5666 19.8337 51.0616 19.9687 51.6035 19.9687Z" fill="#DDFFDC" fill-opacity="1"/>
<path d="M63.326 26.1937C62.6754 26.1937 62.0585 26.1131 61.4754 25.9499C60.8922 25.7868 60.3598 25.5431 59.8779 25.2168C59.396 24.8906 59.0004 24.4799 58.6873 23.9868C58.3741 23.4918 58.1716 22.9312 58.076 22.3087H60.1104C60.2322 22.7287 60.4385 23.0981 60.731 23.4168C61.0216 23.7356 61.3929 23.9831 61.8391 24.1593C62.2872 24.3356 62.7747 24.4237 63.3035 24.4237C63.8997 24.4237 64.4435 24.2981 64.931 24.0468C65.4185 23.7956 65.8085 23.4131 66.101 22.8974C66.3916 22.3818 66.5379 21.7237 66.5379 20.9231V19.5393C66.3204 19.9049 66.0429 20.2406 65.7035 20.5462C65.3641 20.8518 64.9535 21.0956 64.4735 21.2793C63.9916 21.4631 63.4329 21.5549 62.7954 21.5549C61.8466 21.5549 60.9954 21.3318 60.2416 20.8837C59.4898 20.4356 58.8916 19.8093 58.451 19.0012C58.0104 18.1949 57.7891 17.2818 57.7891 16.2656C57.7891 15.2493 58.0104 14.3062 58.451 13.5187C58.8916 12.7331 59.4916 12.1124 60.251 11.6568C61.0104 11.2031 61.8654 10.9762 62.8141 10.9762C63.3841 10.9762 63.9054 11.0606 64.3797 11.2312C64.8541 11.4018 65.2741 11.6287 65.6416 11.9118C66.0072 12.1968 66.3054 12.5231 66.536 12.8887L66.7385 11.2199H68.5704V20.8631C68.5704 21.7312 68.4372 22.4943 68.1729 23.1524C67.9085 23.8106 67.5429 24.3637 67.0741 24.8099C66.6054 25.2581 66.0541 25.5993 65.4166 25.8374C64.7791 26.0737 64.0797 26.1937 63.3204 26.1937H63.326ZM63.1648 19.8056C63.8285 19.8056 64.4098 19.6537 64.9048 19.3481C65.3998 19.0424 65.786 18.6262 66.0635 18.0974C66.341 17.5687 66.4797 16.9574 66.4797 16.2656C66.4797 15.5737 66.341 14.9474 66.0635 14.4243C65.786 13.9031 65.3998 13.4924 64.9048 13.1943C64.4098 12.8962 63.8304 12.7462 63.1648 12.7462C62.4991 12.7462 61.9572 12.8962 61.4566 13.1943C60.9541 13.4924 60.5641 13.9031 60.2866 14.4243C60.0091 14.9474 59.8704 15.5606 59.8704 16.2656C59.8704 16.9706 60.0091 17.5687 60.2866 18.0974C60.5641 18.6262 60.9541 19.0443 61.4566 19.3481C61.9572 19.6537 62.5273 19.8056 63.1648 19.8056Z" fill="#DDFFDC" fill-opacity="1"/>
<path d="M70.5038 21.4744V11.2201H72.3357L72.4576 12.9694C72.7838 12.3451 73.2413 11.8576 73.8301 11.5051C74.4207 11.1526 75.1088 10.9763 75.8944 10.9763C76.7213 10.9763 77.4263 11.1394 78.0094 11.4638C78.5926 11.7882 79.0444 12.2813 79.3632 12.9394C79.6819 13.5976 79.8413 14.4207 79.8413 15.4107V21.4744H77.807V15.6151C77.807 14.6663 77.5969 13.9444 77.1769 13.4476C76.7569 12.9526 76.1457 12.7051 75.3451 12.7051C74.8163 12.7051 74.3419 12.8344 73.9201 13.0913C73.5001 13.3501 73.1645 13.7213 72.9132 14.2107C72.662 14.6982 72.5363 15.2963 72.5363 16.0013V21.4744H70.502H70.5038Z" fill="#DDFFDC" fill-opacity="1"/>
<path d="M82.6863 9.28688C82.2925 9.28688 81.97 9.16501 81.7206 8.92126C81.4694 8.67751 81.3438 8.36438 81.3438 7.98563C81.3438 7.60688 81.4694 7.31813 81.7206 7.08001C81.9719 6.84376 82.2925 6.72375 82.6863 6.72375C83.08 6.72375 83.3838 6.84188 83.6425 7.08001C83.8994 7.31813 84.0288 7.62 84.0288 7.98563C84.0288 8.35125 83.8994 8.67751 83.6425 8.92126C83.3838 9.16501 83.0669 9.28688 82.6863 9.28688ZM81.6681 21.4744V11.22H83.7025V21.4744H81.6681Z" fill="#DDFFDC" fill-opacity="1"/>
<path d="M89.7686 21.4744C89.118 21.4744 88.5555 21.3731 88.0792 21.1687C87.6048 20.9662 87.2373 20.6269 86.9805 20.1506C86.7217 19.6762 86.5942 19.0312 86.5942 18.2175V12.9281H84.8242V11.22H86.5942L86.8586 8.63623H88.6286V11.22H91.518V12.9281H88.6286V18.2381C88.6286 18.8212 88.7505 19.2187 88.9942 19.4287C89.238 19.6387 89.658 19.7437 90.2561 19.7437H91.4355V21.4725H89.7667L89.7686 21.4744Z" fill="#DDFFDC" fill-opacity="1"/>
<path d="M93.7839 9.28688C93.3902 9.28688 93.0677 9.16501 92.8183 8.92126C92.567 8.67751 92.4414 8.36438 92.4414 7.98563C92.4414 7.60688 92.567 7.31813 92.8183 7.08001C93.0695 6.84376 93.3902 6.72375 93.7839 6.72375C94.1777 6.72375 94.4814 6.84188 94.7402 7.08001C94.997 7.31813 95.1264 7.62 95.1264 7.98563C95.1264 8.35125 94.997 8.67751 94.7402 8.92126C94.4814 9.16501 94.1645 9.28688 93.7839 9.28688ZM92.7658 21.4744V11.22H94.8001V21.4744H92.7658Z" fill="#DDFFDC" fill-opacity="1"/>
<path d="M101.436 21.7181C100.46 21.7181 99.5859 21.495 98.8115 21.0469C98.039 20.5987 97.4352 19.9725 97.0002 19.1644C96.5652 18.3581 96.3496 17.4244 96.3496 16.3669C96.3496 15.3094 96.5709 14.3362 97.0115 13.5281C97.4521 12.7219 98.0596 12.0937 98.8321 11.6456C99.6046 11.1975 100.473 10.9744 101.436 10.9744C102.4 10.9744 103.281 11.1975 104.041 11.6456C104.8 12.0937 105.404 12.7181 105.852 13.5169C106.3 14.3175 106.523 15.2606 106.523 16.3444C106.523 17.4281 106.3 18.3562 105.852 19.1625C105.404 19.9687 104.796 20.5969 104.031 21.045C103.265 21.4931 102.4 21.7162 101.438 21.7162L101.436 21.7181ZM101.416 19.9687C101.958 19.9687 102.456 19.8337 102.912 19.5619C103.366 19.29 103.735 18.8831 104.02 18.3412C104.305 17.7994 104.448 17.1337 104.448 16.3481C104.448 15.5625 104.309 14.88 104.031 14.3437C103.754 13.8075 103.39 13.4044 102.942 13.1325C102.494 12.8606 101.999 12.7256 101.457 12.7256C100.915 12.7256 100.413 12.8606 99.9515 13.1325C99.4902 13.4044 99.1209 13.8075 98.8434 14.3437C98.5659 14.88 98.4271 15.5475 98.4271 16.3481C98.4271 17.1487 98.5659 17.7994 98.8434 18.3412C99.1209 18.8831 99.4846 19.29 99.9309 19.5619C100.379 19.8337 100.874 19.9687 101.416 19.9687Z" fill="#DDFFDC" fill-opacity="1"/>
<path d="M108.039 21.4744V11.2201H109.871L109.993 12.9694C110.319 12.3451 110.776 11.8576 111.365 11.5051C111.956 11.1526 112.644 10.9763 113.43 10.9763C114.256 10.9763 114.961 11.1394 115.545 11.4638C116.128 11.7882 116.58 12.2813 116.898 12.9394C117.217 13.5976 117.376 14.4207 117.376 15.4107V21.4744H115.342V15.6151C115.342 14.6663 115.132 13.9444 114.712 13.4476C114.292 12.9526 113.681 12.7051 112.88 12.7051C112.351 12.7051 111.877 12.8344 111.455 13.0913C111.035 13.3501 110.7 13.7213 110.448 14.2107C110.197 14.6982 110.071 15.2963 110.071 16.0013V21.4744H108.037H108.039Z" fill="#DDFFDC" fill-opacity="1"/>
<path d="M17.6141 12.9768C18.1353 12.6768 18.7803 12.6768 19.3016 12.9768L20.6497 13.755C20.6928 13.7793 20.7397 13.7981 20.7866 13.8112C20.7959 13.815 20.8053 13.8168 20.8166 13.8187C20.8634 13.83 20.9103 13.8356 20.9572 13.8375C20.9591 13.8375 20.9609 13.8375 20.9647 13.8375C20.9703 13.8375 20.9741 13.8375 20.9797 13.8356C21.0228 13.8356 21.0659 13.8281 21.1091 13.8187C21.1166 13.8187 21.1241 13.8168 21.1316 13.8131C21.1766 13.8 21.2216 13.7812 21.2628 13.7587C21.2666 13.7568 21.2722 13.755 21.2759 13.7531L23.9703 12.1968C24.1634 12.0862 24.2816 11.88 24.2816 11.6568V8.54433C24.2816 8.32121 24.1634 8.11496 23.9703 8.00433L21.2759 6.44808C21.0828 6.33746 20.8447 6.33746 20.6516 6.44808L17.9572 8.00433C17.9572 8.00433 17.9497 8.00996 17.9459 8.01183C17.9047 8.03621 17.8653 8.06621 17.8316 8.09996C17.8259 8.10558 17.8222 8.11121 17.8166 8.11683C17.7866 8.14871 17.7603 8.18433 17.7359 8.22183C17.7322 8.22746 17.7284 8.23308 17.7247 8.24058C17.7022 8.28183 17.6834 8.32496 17.6703 8.37183C17.6666 8.38121 17.6647 8.39058 17.6628 8.40183C17.6516 8.44871 17.6441 8.49746 17.6441 8.54808V10.1043C17.6441 10.7043 17.3216 11.265 16.8003 11.565C16.2791 11.865 15.6341 11.865 15.1128 11.565L13.7647 10.7868C13.7216 10.7625 13.6747 10.7437 13.6278 10.7306C13.6184 10.7268 13.6091 10.725 13.5978 10.7231C13.5509 10.7118 13.5041 10.7062 13.4572 10.7043C13.4497 10.7043 13.4441 10.7043 13.4366 10.7043C13.3916 10.7043 13.3484 10.7118 13.3053 10.7212C13.2978 10.7212 13.2903 10.7231 13.2847 10.725C13.2378 10.7381 13.1947 10.7568 13.1516 10.7793C13.1478 10.7812 13.1422 10.7831 13.1384 10.785L10.4441 12.3412C10.2509 12.4518 10.1328 12.6581 10.1328 12.8812V15.9937C10.1328 16.2168 10.2509 16.4231 10.4441 16.5337L13.1384 18.09C13.1384 18.09 13.1478 18.0937 13.1516 18.0956C13.1947 18.1181 13.2378 18.1368 13.2847 18.15C13.2922 18.1518 13.2997 18.1537 13.3072 18.1556C13.3503 18.165 13.3934 18.1706 13.4366 18.1725C13.4422 18.1725 13.4459 18.1743 13.4516 18.1743C13.4534 18.1743 13.4553 18.1743 13.4591 18.1743C13.5059 18.1743 13.5528 18.1668 13.5997 18.1556C13.6091 18.1537 13.6184 18.15 13.6297 18.1481C13.6766 18.135 13.7216 18.1162 13.7666 18.0918L15.1147 17.3137C15.6359 17.0137 16.2809 17.0137 16.8022 17.3137C17.3216 17.6137 17.6459 18.1743 17.6459 18.7743V20.3306C17.6459 20.3812 17.6534 20.43 17.6647 20.4768C17.6666 20.4862 17.6684 20.4975 17.6722 20.5068C17.6853 20.5518 17.7041 20.5968 17.7266 20.6381C17.7303 20.6437 17.7341 20.6493 17.7378 20.6568C17.7603 20.6943 17.7866 20.73 17.8184 20.7618C17.8241 20.7675 17.8278 20.7731 17.8334 20.7787C17.8672 20.8125 17.9066 20.8406 17.9478 20.8668C17.9516 20.8687 17.9553 20.8725 17.9591 20.8743L20.6534 22.4306C20.7491 22.4868 20.8578 22.515 20.9647 22.515C21.0716 22.515 21.1803 22.4868 21.2759 22.4306L23.9703 20.8743C24.1634 20.7637 24.2816 20.5575 24.2816 20.3343V17.2218C24.2816 16.9987 24.1634 16.7925 23.9703 16.6818L21.2759 15.1256C21.2759 15.1256 21.2666 15.1218 21.2628 15.12C21.2197 15.0975 21.1766 15.0787 21.1297 15.0656C21.1222 15.0637 21.1166 15.0637 21.1091 15.0618C21.0659 15.0506 21.0209 15.045 20.9778 15.045C20.9703 15.045 20.9647 15.045 20.9572 15.045C20.9103 15.045 20.8634 15.0525 20.8166 15.0637C20.8072 15.0656 20.7978 15.0693 20.7884 15.0712C20.7416 15.0843 20.6966 15.1031 20.6516 15.1275L19.3034 15.9056C18.7841 16.2056 18.1372 16.2056 17.6159 15.9056C17.0966 15.6056 16.7722 15.045 16.7722 14.445C16.7722 13.845 17.0947 13.2843 17.6159 12.9843L17.6141 12.9768Z" fill="#DDFFDC" fill-opacity="1"/>
<path d="M2.93436 12.1987L5.62873 13.755C5.72436 13.8112 5.83311 13.8393 5.93998 13.8393C6.04686 13.8393 6.15561 13.8112 6.25123 13.755L8.94561 12.1987C8.94561 12.1987 8.95311 12.1931 8.95686 12.1912C8.99811 12.1668 9.03748 12.1368 9.07123 12.1031C9.07686 12.0975 9.08061 12.0918 9.08623 12.0862C9.11623 12.0543 9.14248 12.0187 9.16686 11.9812C9.17061 11.9756 9.17436 11.97 9.17811 11.9625C9.20061 11.9212 9.21936 11.8781 9.23248 11.8312C9.23623 11.8218 9.23811 11.8125 9.23998 11.8012C9.25123 11.7543 9.25873 11.7056 9.25873 11.655V10.0987C9.25873 9.49871 9.58123 8.93809 10.1025 8.63808C10.6237 8.33809 11.2687 8.33809 11.79 8.63808L13.1381 9.41621C13.1812 9.44059 13.2281 9.45933 13.275 9.47246C13.2844 9.47621 13.2937 9.47808 13.305 9.47996C13.3519 9.49121 13.3969 9.49684 13.4456 9.49871C13.4475 9.49871 13.4494 9.49871 13.4531 9.49871C13.4587 9.49871 13.4625 9.49684 13.4681 9.49684C13.5112 9.49684 13.5544 9.48933 13.5975 9.47996C13.605 9.47996 13.6125 9.47808 13.62 9.47433C13.6669 9.46121 13.71 9.44246 13.7531 9.41996C13.7569 9.41808 13.7625 9.41621 13.7662 9.41433L16.4606 7.85809C16.6537 7.74746 16.7719 7.54121 16.7719 7.31808V4.20559C16.7719 3.98246 16.6537 3.77621 16.4606 3.66559L13.7662 2.10934C13.5731 1.99871 13.335 1.99871 13.1419 2.10934L10.4475 3.66559C10.4475 3.66559 10.44 3.67121 10.4362 3.67308C10.395 3.69746 10.3556 3.72746 10.3219 3.76121C10.3162 3.76684 10.3125 3.77246 10.3069 3.77809C10.2769 3.80996 10.2506 3.84559 10.2262 3.88309C10.2225 3.88871 10.2187 3.89434 10.215 3.90184C10.1925 3.94309 10.1737 3.98621 10.1606 4.03309C10.1569 4.04246 10.155 4.05184 10.1531 4.06309C10.1419 4.10996 10.1344 4.15871 10.1344 4.20934V5.76559C10.1344 6.36559 9.81186 6.92621 9.29061 7.22621C8.77123 7.52621 8.12436 7.52621 7.60311 7.22621L6.25498 6.44808C6.21186 6.42371 6.16498 6.40496 6.11811 6.39183C6.10873 6.38808 6.09936 6.38621 6.08811 6.38434C6.04123 6.37309 5.99436 6.36746 5.94748 6.36558C5.93998 6.36558 5.93436 6.36558 5.92686 6.36558C5.88186 6.36558 5.83873 6.37309 5.79561 6.38246C5.78811 6.38246 5.78061 6.38433 5.77498 6.38621C5.72811 6.39933 5.68498 6.41808 5.64186 6.44058C5.63811 6.44246 5.63248 6.44433 5.62873 6.44621L2.93436 8.00246C2.74123 8.11308 2.62311 8.31933 2.62311 8.54246V11.655C2.62311 11.8781 2.74123 12.0843 2.93436 12.195V12.1987Z" fill="#DDFFDC" fill-opacity="1"/>
<path d="M16.4587 21.0113L13.7644 19.455C13.7644 19.455 13.755 19.4513 13.7512 19.4494C13.7081 19.4269 13.665 19.4082 13.6181 19.395C13.6106 19.3932 13.6031 19.3913 13.5956 19.3894C13.5525 19.38 13.5094 19.3725 13.4644 19.3725C13.4569 19.3725 13.4512 19.3725 13.4437 19.3725C13.3969 19.3725 13.35 19.38 13.3031 19.3913C13.2937 19.3932 13.2844 19.3969 13.275 19.3988C13.2281 19.4119 13.1831 19.4307 13.1381 19.455L11.79 20.2332C11.2706 20.5332 10.6237 20.5332 10.1044 20.2332C9.58311 19.9332 9.26061 19.3725 9.26061 18.7725V17.2163C9.26061 17.1657 9.25311 17.1169 9.24186 17.07C9.23998 17.0607 9.23811 17.0494 9.23436 17.04C9.22123 16.995 9.20248 16.95 9.17998 16.9088C9.17623 16.9032 9.17248 16.8975 9.16873 16.89C9.14623 16.8525 9.11998 16.8169 9.08811 16.785C9.08248 16.7794 9.07873 16.7738 9.07311 16.7682C9.03936 16.7344 8.99998 16.7063 8.95873 16.68C8.95498 16.6782 8.95123 16.6744 8.94748 16.6725L6.25311 15.1163C6.05998 15.0057 5.82186 15.0057 5.62873 15.1163L2.93436 16.6725C2.74123 16.7832 2.62311 16.9894 2.62311 17.2125V20.325C2.62311 20.5482 2.74123 20.7544 2.93436 20.865L5.62873 22.4213C5.62873 22.4213 5.63811 22.425 5.64186 22.4269C5.68498 22.4494 5.72811 22.4682 5.77311 22.4813C5.78061 22.4832 5.78811 22.485 5.79561 22.4869C5.83873 22.4963 5.87998 22.5019 5.92498 22.5038C5.93061 22.5038 5.93623 22.5057 5.93998 22.5057C5.94186 22.5057 5.94373 22.5057 5.94748 22.5057C5.99436 22.5057 6.04123 22.4982 6.08623 22.4869C6.09561 22.485 6.10686 22.4813 6.11623 22.4794C6.16311 22.4663 6.20811 22.4475 6.25311 22.4232L7.60123 21.645C8.12248 21.345 8.76748 21.345 9.28873 21.645C9.80811 21.945 10.1325 22.5057 10.1325 23.1057V24.6619C10.1325 24.7125 10.14 24.7613 10.1512 24.8082C10.1531 24.8175 10.155 24.8288 10.1587 24.8382C10.1719 24.8832 10.1906 24.9282 10.2131 24.9694C10.2169 24.975 10.2206 24.9807 10.2244 24.9882C10.2469 25.0257 10.2731 25.0613 10.305 25.0932C10.3106 25.0988 10.3144 25.1044 10.32 25.11C10.3537 25.1438 10.3931 25.1719 10.4344 25.1982C10.4381 25.2 10.4419 25.2038 10.4456 25.2057L13.14 26.7619C13.2356 26.8182 13.3444 26.8463 13.4512 26.8463C13.5581 26.8463 13.6669 26.8182 13.7625 26.7619L16.4569 25.2057C16.65 25.095 16.7681 24.8888 16.7681 24.6657V21.5532C16.7681 21.33 16.65 21.1238 16.4569 21.0132L16.4587 21.0113Z" fill="#DDFFDC" fill-opacity="1"/>
</svg>
